Coordinates
version=1
nRows=16
nColumns=63
inDegrees=yes

Units are S.I. units (second, meters, Newtons, ...)
If the header above contains a line with 'inDegrees', this indicates whether rotational values are in degrees (yes) or radians (no).

endheader
time	pelvis_tilt	pelvis_list	pelvis_rotation	pelvis_tx	pelvis_ty	pelvis_tz	hip_flexion_r	hip_adduction_r	hip_rotation_r	knee_angle_r	knee_angle_r_beta	ankle_angle_r	subtalar_angle_r	mtp_angle_r	hip_flexion_l	hip_adduction_l	hip_rotation_l	knee_angle_l	knee_angle_l_beta	ankle_angle_l	subtalar_angle_l	mtp_angle_l	L5_S1_Flex_Ext	L5_S1_Lat_Bending	L5_S1_axial_rotation	L4_L5_Flex_Ext	L4_L5_Lat_Bending	L4_L5_axial_rotation	L3_L4_Flex_Ext	L3_L4_Lat_Bending	L3_L4_axial_rotation	L2_L3_Flex_Ext	L2_L3_Lat_Bending	L2_L3_axial_rotation	L1_L2_Flex_Ext	L1_L2_Lat_Bending	L1_L2_axial_rotation	L1_T12_Flex_Ext	L1_T12_Lat_Bending	L1_T12_axial_rotation	Abs_r3	Abs_r2	Abs_r1	Abs_t1	Abs_t2	neck_flexion	neck_bending	neck_rotation	arm_flex_r	arm_add_r	arm_rot_r	elbow_flex_r	pro_sup_r	wrist_flex_r	wrist_dev_r	arm_flex_l	arm_add_l	arm_rot_l	elbow_flex_l	pro_sup_l	wrist_flex_l	wrist_dev_l
2.693878	3.053179	18.802595	92.881398	0.255893	0.750407	0.726840	-2.894405	5.247119	9.161456	25.360967	0.442632	30.620219	-5.885738	0.000000	-7.875911	-6.024786	-14.629680	20.858304	0.364046	37.811383	4.742419	0.000000	0.321243	0.181737	0.736251	0.596580	0.241711	0.782266	0.527770	0.441876	0.782266	0.367149	0.441876	0.644219	0.298306	0.370599	0.598204	0.183558	0.281511	0.552188	2.294607	2.055850	4.094806	0.000000	0.000000	13.159923	-4.504531	36.658189	137.430045	-34.136092	63.141212	59.402573	72.985999	-2.849485	9.216971	94.097528	-27.243410	14.590953	85.698875	85.605073	-17.031229	-5.143636
2.714286	3.116506	18.489164	92.426570	0.255626	0.751347	0.725204	-3.004768	5.112284	9.450520	24.806817	0.432961	30.317598	-5.620488	0.000000	-8.174844	-5.787328	-15.107643	20.000521	0.349075	37.557791	4.490412	0.000000	0.342473	0.203975	0.878286	0.636008	0.271287	0.933179	0.562650	0.495946	0.933179	0.391413	0.495946	0.768500	0.318021	0.415947	0.713607	0.195689	0.315958	0.658714	2.446254	2.307411	4.884762	0.000000	0.000000	13.680293	-4.481406	37.432313	143.370848	-29.865842	71.147218	51.315329	67.677920	-3.728193	8.058052	103.157071	-24.914537	20.429225	76.008809	83.556583	-16.573098	-5.495684
2.734694	3.205688	18.204627	91.999170	0.255331	0.752157	0.723648	-3.078865	5.007357	9.657759	24.348841	0.424967	30.027973	-5.299670	0.000000	-8.442165	-5.595783	-15.495707	19.245725	0.335901	37.308232	4.213194	0.000000	0.355843	0.217445	1.031109	0.660836	0.289202	1.095553	0.584615	0.528696	1.095553	0.406693	0.528696	0.902220	0.330436	0.443414	0.837776	0.203329	0.336822	0.773332	2.541752	2.459782	5.734717	0.000000	0.000000	13.948276	-4.498183	37.571880	147.471180	-26.248905	77.027528	44.508888	64.247964	-4.827267	6.891420	111.441141	-22.307621	26.165680	66.722508	81.248565	-15.624204	-5.394575
2.755102	3.327814	17.953268	91.603828	0.254956	0.752817	0.722293	-3.101659	4.942309	9.787575	24.007089	0.419003	29.752984	-4.929915	0.000000	-8.658132	-5.459521	-15.767292	18.621034	0.324998	37.089428	3.912667	0.000000	0.361371	0.226732	1.195932	0.671101	0.301554	1.270678	0.593696	0.551277	1.270678	0.413010	0.551277	1.046440	0.335569	0.462352	0.971695	0.206487	0.351208	0.896949	2.581234	2.564840	6.651415	0.000000	0.000000	13.939250	-4.661037	37.108080	150.191260	-23.539131	81.205104	39.221639	61.975191	-6.059895	5.952454	118.666911	-19.561509	31.495567	58.245803	78.571202	-14.338666	-5.030253
2.775510	3.476433	17.738855	91.264297	0.254497	0.753327	0.721204	-3.076933	4.916514	9.834665	23.773324	0.414923	29.505453	-4.518949	0.000000	-8.812473	-5.379577	-15.912810	18.130660	0.316440	36.921853	3.602843	0.000000	0.358648	0.232389	1.365702	0.666045	0.309078	1.451058	0.589223	0.565031	1.451058	0.409899	0.565031	1.194989	0.333040	0.473888	1.109633	0.204931	0.359971	1.024276	2.561786	2.628834	7.595622	0.000000	0.000000	13.696370	-5.006842	36.025524	152.219476	-21.858073	84.186523	35.638210	60.707546	-7.119116	5.427915	124.621993	-16.792805	36.034509	50.946594	75.859661	-12.708533	-4.394024
2.795918	3.654714	17.541272	90.968556	0.253955	0.753626	0.720374	-2.978100	4.931327	9.801470	23.655708	0.412870	29.307077	-4.050323	0.000000	-8.876561	-5.358145	-15.937698	17.786355	0.310430	36.848336	3.278908	0.000000	0.350119	0.237460	1.545697	0.650207	0.315822	1.642303	0.575211	0.577360	1.642303	0.400151	0.577360	1.352485	0.325121	0.484228	1.255879	0.200058	0.367825	1.159273	2.500868	2.686194	8.596705	0.000000	0.000000	13.354293	-5.612433	34.403001	153.926511	-21.160456	86.268878	33.829141	60.539742	-8.006886	5.304911	129.152698	-14.150031	39.487627	45.191145	73.147348	-10.890679	-3.560001
2.816327	3.850137	17.339120	90.717026	0.253401	0.753652	0.719728	-2.786031	4.988010	9.726676	23.658220	0.412914	29.168726	-3.561269	0.000000	-8.825190	-5.393844	-15.865651	17.596231	0.307112	36.910830	2.982993	0.000000	0.338482	0.240178	1.734311	0.628595	0.319437	1.842706	0.556092	0.583969	1.842706	0.386851	0.583969	1.517522	0.314314	0.489771	1.409128	0.193409	0.372036	1.300734	2.417742	2.716943	9.645720	0.000000	0.000000	13.091218	-6.425218	32.348377	155.253370	-21.374849	87.285609	33.793641	61.692685	-8.717826	5.477392	132.259974	-11.774310	41.784891	41.219601	70.532007	-9.135807	-2.703918
2.836735	4.033917	17.119204	90.548619	0.252889	0.753361	0.719211	-2.491776	5.066039	9.587085	23.780985	0.415056	29.112865	-3.075381	0.000000	-8.631015	-5.465926	-15.660191	17.570655	0.306666	37.112266	2.715611	0.000000	0.325035	0.235048	1.908751	0.603622	0.312614	2.028048	0.533999	0.571497	2.028048	0.371482	0.571497	1.670157	0.301827	0.479311	1.550860	0.185725	0.364090	1.431563	2.321690	2.658914	10.615902	0.000000	0.000000	13.057263	-7.274390	29.988027	156.022094	-22.354507	87.018189	35.438057	63.601359	-9.181964	5.689631	134.008261	-9.753794	42.882496	39.142719	68.100537	-7.475734	-1.895387
2.857143	4.190351	16.877943	90.477477	0.252468	0.752770	0.718797	-2.100176	5.154485	9.385472	24.013767	0.419119	29.135526	-2.622044	0.000000	-8.294233	-5.563471	-15.332199	17.696514	0.308862	37.433564	2.501327	0.000000	0.312490	0.219068	2.044893	0.580325	0.291361	2.172699	0.513390	0.532643	2.172699	0.357145	0.532643	1.789281	0.290178	0.446724	1.661476	0.178557	0.339337	1.533670	2.232085	2.478147	11.373082	0.000000	0.000000	13.300900	-7.985526	27.501145	156.019244	-23.896419	85.295920	38.635856	65.883292	-9.554923	5.730648	134.558313	-8.179440	42.963239	38.958087	65.979004	-5.872804	-1.193892
2.877551	4.292457	16.622226	90.539411	0.252184	0.751918	0.718515	-1.628595	5.230313	9.100080	24.340665	0.424825	29.231246	-2.226541	0.000000	-7.821724	-5.665016	-14.869916	17.961872	0.313494	37.843363	2.361638	0.000000	0.301580	0.187218	2.117707	0.560064	0.249001	2.250064	0.495466	0.455203	2.250064	0.344676	0.455203	1.852994	0.280047	0.381776	1.720637	0.172323	0.290001	1.588281	2.154156	2.117853	11.778053	0.000000	0.000000	13.889770	-8.417800	25.008870	154.981546	-25.744234	81.913885	43.248024	68.237406	-9.706847	5.645095	134.064254	-7.112233	42.251353	40.553642	64.357872	-4.253607	-0.663294
2.897959	4.345844	16.353246	90.723402	0.252033	0.750854	0.718390	-1.087010	5.295104	8.752286	24.747075	0.431918	29.377874	-1.906808	0.000000	-7.224642	-5.767179	-14.284974	18.355260	0.320360	38.322810	2.303146	0.000000	0.296064	0.141669	2.121496	0.549820	0.188420	2.254089	0.486403	0.344454	2.254089	0.338371	0.344454	1.856309	0.274925	0.288891	1.723715	0.169171	0.219445	1.591122	2.114755	1.602588	11.799122	0.000000	0.000000	14.835349	-8.598317	22.639786	152.751995	-27.669450	76.985860	49.043808	70.828433	-9.707123	5.338195	132.534661	-6.545306	40.905020	43.713252	63.515244	-2.734006	-0.556292
2.918367	4.357774	16.080598	91.018763	0.252029	0.749652	0.718434	-0.504831	5.356733	8.365182	25.200211	0.439827	29.543549	-1.697798	0.000000	-6.532875	-5.874844	-13.613233	18.851939	0.329028	38.844965	2.328808	0.000000	0.299587	0.085361	2.065189	0.556363	0.113530	2.194263	0.492191	0.207546	2.194263	0.342398	0.207546	1.807040	0.278196	0.174068	1.677966	0.171184	0.132224	1.548892	2.139920	0.965618	11.485962	0.000000	0.000000	16.046775	-8.616110	20.431887	149.185784	-29.518848	70.705315	55.751158	73.964477	-9.578129	4.931657	129.939577	-6.421008	39.075236	48.099277	63.565223	-1.430399	-1.092866
2.938776	4.347179	15.830355	91.382577	0.252171	0.748407	0.718718	0.083795	5.430518	7.976128	25.681064	0.448219	29.683391	-1.594383	0.000000	-5.790260	-6.002424	-12.906937	19.438651	0.339268	39.375814	2.419065	0.000000	0.310177	0.025943	1.967714	0.576030	0.034504	2.090696	0.509590	0.063077	2.090696	0.354501	0.063077	1.721750	0.288030	0.052902	1.598768	0.177235	0.040185	1.475786	2.215564	0.293467	10.943836	0.000000	0.000000	17.351480	-8.622688	18.546260	144.269374	-31.186911	63.375808	62.962489	77.674441	-9.139724	4.557413	126.287724	-6.643438	36.830367	53.209769	64.631659	-0.230127	-2.504762
2.959184	4.335614	15.600701	91.788254	0.252419	0.747186	0.719229	0.664064	5.532312	7.619873	26.155687	0.456503	29.794915	-1.616750	0.000000	-5.014066	-6.164861	-12.218627	20.092809	0.350686	39.881229	2.588923	0.000000	0.329693	-0.032673	1.856740	0.612273	-0.043455	1.972786	0.541653	-0.079441	1.972786	0.376806	-0.079441	1.624648	0.306153	-0.066627	1.508601	0.188387	-0.050611	1.392555	2.354964	-0.369605	10.326631	0.000000	0.000000	18.462507	-8.669019	16.848860	138.120159	-32.648609	55.801979	70.197685	81.299114	-8.908565	4.123672	121.749359	-7.066613	34.503372	58.401611	66.517068	0.656608	-4.767665
2.979592	4.335649	15.375344	92.219039	0.252731	0.746000	0.719970	1.249241	5.663482	7.295042	26.606835	0.464377	29.896459	-1.727911	0.000000	-4.192750	-6.365288	-11.561955	20.806675	0.363145	40.331331	2.810983	0.000000	0.355957	-0.087742	1.745693	0.661048	-0.116697	1.854798	0.584802	-0.213337	1.854798	0.406823	-0.213337	1.527481	0.330542	-0.178924	1.418375	0.203394	-0.135913	1.309270	2.542565	-0.992559	9.709019	0.000000	0.000000	19.199361	-8.750270	15.391285	130.939017	-33.724176	48.754618	76.880347	83.995689	-8.940325	3.452430	116.571142	-7.618134	32.450666	63.098583	68.882697	1.123842	-7.636309
3.000000	4.353912	15.128952	92.670483	0.253107	0.744784	0.720915	1.869101	5.825634	7.002332	27.035366	0.471856	30.009706	-1.924493	0.000000	-3.297955	-6.606250	-10.957507	21.583018	0.376695	40.731766	3.093677	0.000000	0.385076	-0.139124	1.637074	0.715125	-0.185035	1.739391	0.632641	-0.338266	1.739391	0.440103	-0.338266	1.432439	0.357582	-0.283702	1.330122	0.220032	-0.215503	1.227805	2.750559	-1.573799	9.104912	0.000000	0.000000	19.486825	-8.817734	14.249715	123.005023	-34.222899	42.960334	82.591657	84.738911	-9.151004	2.524965	111.021486	-8.289145	31.175435	66.941082	71.204396	0.981643	-10.820355
